<svg id="Layer_1" data-name="Layer 1" xmlns="http://www.w3.org/2000/svg" viewBox="0 0 580.05 267.72"><defs><style>.cls-1{fill:#eb008b;}.cls-2{fill:#fff;}.cls-3{fill:#6b6b6b;}</style></defs><title>deciframe_9</title><path class="cls-1" d="M133.44,3.7l92,53.12a27.61,27.61,0,0,1,13.82,23.92V187a27.61,27.61,0,0,1-13.82,23.92l-92,53.12a27.59,27.59,0,0,1-27.62,0l-92-53.12A27.63,27.63,0,0,1,0,187V80.74A27.63,27.63,0,0,1,13.81,56.82l92-53.12A27.64,27.64,0,0,1,133.44,3.7Z"/><path class="cls-2" d="M106.7,105.26v24.42h34a4.71,4.71,0,0,1,4.75,4.75,4.42,4.42,0,0,1-1.38,3.32,4.7,4.7,0,0,1-3.37,1.32h-34v29.51a4.71,4.71,0,0,1-1.49,3.53,5,5,0,0,1-3.59,1.44,4.9,4.9,0,0,1-5-5V101a5,5,0,0,1,1.43-3.59,4.72,4.72,0,0,1,3.54-1.5h43a4.73,4.73,0,0,1,4.75,4.76,4.4,4.4,0,0,1-1.38,3.31,4.69,4.69,0,0,1-3.37,1.33Z"/><path class="cls-2" d="M474.24,3.7l92,53.12a27.6,27.6,0,0,1,13.81,23.92V187a27.6,27.6,0,0,1-13.81,23.92l-92,53.12a27.61,27.61,0,0,1-27.63,0l-92-53.12A27.61,27.61,0,0,1,340.79,187V80.74a27.61,27.61,0,0,1,13.82-23.92l92-53.12A27.66,27.66,0,0,1,474.24,3.7Z"/><path class="cls-3" d="M447.49,105.26v24.42h34a4.71,4.71,0,0,1,4.75,4.75,4.42,4.42,0,0,1-1.38,3.32,4.69,4.69,0,0,1-3.37,1.32h-34v29.51a4.67,4.67,0,0,1-1.49,3.53,5,5,0,0,1-3.59,1.44,4.92,4.92,0,0,1-5-5V101a5,5,0,0,1,1.44-3.59,4.68,4.68,0,0,1,3.53-1.5h43a4.73,4.73,0,0,1,4.75,4.76,4.4,4.4,0,0,1-1.38,3.31,4.67,4.67,0,0,1-3.37,1.33Z"/></svg>