<svg id="Layer_1" data-name="Layer 1" xmlns="http://www.w3.org/2000/svg" viewBox="0 0 920.79 328.52"><defs><style>.cls-1{fill:#fff;}</style></defs><title>deciframe_10</title><path class="cls-1" d="M910.47,191.45V171.3a45.42,45.42,0,0,0-45.24-45.61h-.37a44.73,44.73,0,0,0-43.8,44.73v29.29h-232a6.57,6.57,0,0,0-6.57,6.25l-2.75,54.62a6.55,6.55,0,0,0,6.24,6.88h16.16a6.57,6.57,0,0,0,6.57-6.57c0-.1,0-.21,0-.32l-1.5-35.85H821v29.6a44.72,44.72,0,0,0,43.79,44.73,45.41,45.41,0,0,0,45.61-45.23V236.31a29.46,29.46,0,0,0,3.38-41.54A28.05,28.05,0,0,0,910.47,191.45ZM821,213.91v-3.38a9.54,9.54,0,0,0,0,1.69A9.54,9.54,0,0,0,821,213.91Zm70.38,40.17a25.64,25.64,0,0,1-25.69,25.6h-.9a26.09,26.09,0,0,1-24.71-26.28V213.91a9.54,9.54,0,0,0,0-1.69,9.54,9.54,0,0,0,0-1.69V171.05a26.09,26.09,0,0,1,24.71-26.28,25.66,25.66,0,0,1,26.58,24.7c0,.32,0,.63,0,.95v83.66Z"/><path class="cls-1" d="M168.79,125.69H140V76.82A46.11,46.11,0,0,0,98.09,31.09,44.73,44.73,0,0,0,50.68,73c0,.93-.08,1.85-.08,2.78v49.68H21.82A21.78,21.78,0,0,0,0,147.21H0v83.15a95.29,95.29,0,0,0,190.5,5.73c.05-1.59.05-3.19,0-4.79V147.46A21.77,21.77,0,0,0,168.79,125.69Zm-61,104.74,1.44,29.21a14.25,14.25,0,0,1-13.55,14.94l-.4,0h0a14.28,14.28,0,0,1-14.22-14.31c0-.22,0-.43,0-.65l1.69-29.21h0a22.88,22.88,0,1,1,25.53,0h-.51Zm13.14-104.74H69.62V76.57A26,26,0,0,1,93,50.42a25.65,25.65,0,0,1,27.86,23.23c.07.77.1,1.53.1,2.3v49.74Z"/><path class="cls-1" d="M449,125.68l-28.77.77L418,44.39A45.42,45.42,0,0,0,371.57,0h-.38a44.73,44.73,0,0,0-42.58,45.9l1.08,40.15a9.51,9.51,0,0,0,18.76-.5L347.4,46.29a26.08,26.08,0,0,1,24-26.93,25.63,25.63,0,0,1,27.22,24c0,.32,0,.64.05,1L400.88,127,302,129.62A21.77,21.77,0,0,0,280.82,152h0l2.24,83.81a95.29,95.29,0,1,0,190.51-5.11l-2.24-83.81A21.77,21.77,0,0,0,449,125.68ZM390.8,232,393,261.19a14.27,14.27,0,0,1-13.16,15.29l-.39,0h0a14.27,14.27,0,0,1-14.6-13.93v-.64l.91-29.25h0a22.89,22.89,0,1,1,25.52-.69h0Z"/></svg>