<?xml version="1.0" encoding="utf-8"?>
<!-- Generator: Adobe Illustrator 21.0.2, SVG Export Plug-In . SVG Version: 6.00 Build 0)  -->
<svg version="1.1" id="Layer_1" xmlns="http://www.w3.org/2000/svg" xmlns:xlink="http://www.w3.org/1999/xlink" x="0px" y="0px"
	 viewBox="0 0 621 612" style="enable-background:new 0 0 621 612;" xml:space="preserve">
<style type="text/css">
	.st0{opacity:0.8;fill:#EC008C;}
	.st1{opacity:0.8;fill-rule:evenodd;clip-rule:evenodd;fill:#F15A29;}
	.st2{opacity:0.8;fill-rule:evenodd;clip-rule:evenodd;fill:#EC008C;}
</style>
<path class="st0" d="M310.5,19c-158.3,0-287,128.7-287,287c0,158.3,128.7,287,287,287c158.3,0,287-128.7,287-287
	C597.5,147.7,468.8,19,310.5,19z M555.6,306c0,135.1-109.9,245.1-245.1,245.1C175.4,551.1,65.4,441.1,65.4,306
	c0-135.1,109.9-245.1,245.1-245.1C445.6,60.9,555.6,170.9,555.6,306z"/>
<g>
	<path class="st1" d="M233.4,153.6c16.7,0,32,6.3,43.6,16.7c11.6-10.4,26.8-16.7,43.6-16.7c36.1,0,65.4,29.3,65.4,65.4v174.1
		c0,12.1-9.8,21.8-21.8,21.8c-12,0-21.7-9.8-21.7-21.8V219c0-12.1-9.8-21.8-21.8-21.8c-12.1,0-21.7,9.7-21.7,21.8l0,0v217.5
		c0,12.1-9.8,21.8-21.8,21.8c-12.1,0-21.8-9.8-21.8-21.8V219l0,0c0-12.1-9.7-21.8-21.7-21.8c-12.1,0-21.8,9.7-21.8,21.8v174.1
		c0,12.1-9.8,21.8-21.7,21.8c-12.1,0-21.8-9.8-21.8-21.8V219C168,182.9,197.3,153.6,233.4,153.6z"/>
	<path class="st2" d="M464.3,360.5c5.5,9.6,8.7,20.7,8.7,32.6c0,36.1-29.2,65.3-65.3,65.3c-36.1,0-65.3-29.3-65.3-65.3
		c0-12,9.8-21.8,21.8-21.8c12,0,21.8,9.7,21.8,21.8c0,12,9.8,21.8,21.8,21.8c12,0,21.8-9.7,21.8-21.8c0-3.9-1-7.5-2.8-10.7l-0.4-0.7
		l-30.5-52.8L352,253.1l-1-1.7l0,0c-5.5-9.6-8.7-20.7-8.7-32.6c0-36.1,29.3-65.3,65.3-65.3c36.1,0,65.3,29.2,65.3,65.3
		c0,12-9.7,21.8-21.8,21.8c-12,0-21.8-9.8-21.8-21.8c0-12-9.8-21.8-21.8-21.8c-12,0-21.8,9.8-21.8,21.8c0,3.9,1,7.5,2.8,10.7
		c0.5,0.8,1,1.7,1.6,2.4l29.4,51.1l43.8,76l0.1,0.1L464.3,360.5L464.3,360.5z"/>
</g>
</svg>
