<svg id="Layer_1" data-name="Layer 1" xmlns="http://www.w3.org/2000/svg" viewBox="0 0 574 574"><defs><style>.cls-1,.cls-3{fill:#ec008c;}.cls-1,.cls-2,.cls-3{opacity:0.8;isolation:isolate;}.cls-2{fill:#f15a29;}.cls-2,.cls-3{fill-rule:evenodd;}</style></defs><title>up</title><path class="cls-1" d="M310.5,19c-158.3,0-287,128.7-287,287s128.7,287,287,287,287-128.7,287-287S468.8,19,310.5,19ZM555.6,306c0,135.1-109.9,245.1-245.1,245.1S65.4,441.1,65.4,306,175.3,60.9,310.5,60.9,555.6,170.9,555.6,306Z" transform="translate(-23.5 -19)"/><path class="cls-2" d="M377.35,220.59a62.66,62.66,0,0,0-22.3-4,65.79,65.79,0,0,0-22.12,3.86,37.91,37.91,0,0,0-7.73,3.34,42.83,42.83,0,0,0-4.91,2.81,29.56,29.56,0,0,0-4.92,3.33,29.25,29.25,0,0,0-4.56,3.69,66,66,0,0,0-22.3,49.51V504.31a22.21,22.21,0,1,0,44.42,0V345.77a65.79,65.79,0,0,0,22.12,3.86,62.66,62.66,0,0,0,22.3-4,66.27,66.27,0,0,0,0-125Zm-22.3,84.8a22.21,22.21,0,1,1,22.3-22.3A22.18,22.18,0,0,1,355.05,305.39Z" transform="translate(-23.5 -19)"/><path class="cls-3" d="M310.61,83.77a22.17,22.17,0,0,0-22.1,22.2V283.09a22.21,22.21,0,0,1-44.42,0V106a22.16,22.16,0,1,0-44.31,0V283.09a66.52,66.52,0,1,0,133,0V106A22.18,22.18,0,0,0,310.61,83.77Z" transform="translate(-23.5 -19)"/></svg>